<?xml version="1.0" standalone="yes"?>

<svg version="1.1" viewBox="0.0 0.0 628.7690288713911 401.68241469816275" fill="none" stroke="none" stroke-linecap="square" stroke-miterlimit="10" xmlns="http://www.w3.org/2000/svg" xmlns:xlink="http://www.w3.org/1999/xlink"><clipPath id="p.0"><path d="m0 0l628.76904 0l0 401.6824l-628.76904 0l0 -401.6824z" clip-rule="nonzero"></path></clipPath><g clip-path="url(#p.0)"><path fill="#000000" fill-opacity="0.0" d="m0 0l628.76904 0l0 401.6824l-628.76904 0z" fill-rule="evenodd"></path><path fill="#cfe2f3" d="m119.78477 29.506561l252.34647 0l0 62.992126l-252.34647 0z" fill-rule="evenodd"></path><path stroke="#000000" stroke-width="1.0" stroke-linejoin="round" stroke-linecap="butt" d="m119.78477 29.506561l252.34647 0l0 62.992126l-252.34647 0z" fill-rule="evenodd"></path><path fill="#000000" d="m137.3004 67.04762l-1.015625 1.03125l-6.234375 -5.21875l6.234375 -5.203125l1.015625 1.03125l-5.0625 4.15625l5.0625 4.203125zm11.101044 -4.28125q0 0.34375 -0.015625 0.578125q-0.015625 0.234375 -0.03125 0.4375l-6.53125 0q0 1.4375 0.796875 2.203125q0.796875 0.765625 2.296875 0.765625q0.40625 0 0.8125 -0.03125q0.40625 -0.046875 0.78125 -0.09375q0.390625 -0.0625 0.734375 -0.125q0.34375 -0.078125 0.640625 -0.15625l0 1.328125q-0.65625 0.1875 -1.484375 0.296875q-0.828125 0.125 -1.71875 0.125q-1.203125 0 -2.0625 -0.328125q-0.859375 -0.328125 -1.421875 -0.9375q-0.546875 -0.625 -0.8125 -1.515625q-0.265625 -0.890625 -0.265625 -2.03125q0 -0.984375 0.28125 -1.859375q0.296875 -0.875 0.828125 -1.53125q0.546875 -0.671875 1.328125 -1.0625q0.796875 -0.390625 1.796875 -0.390625q0.984375 0 1.734375 0.3125q0.75 0.296875 1.265625 0.859375q0.515625 0.5625 0.78125 1.375q0.265625 0.796875 0.265625 1.78125zm-1.6875 -0.21875q0.03125 -0.625 -0.125 -1.140625q-0.140625 -0.515625 -0.453125 -0.890625q-0.3125 -0.375 -0.78125 -0.578125q-0.453125 -0.203125 -1.078125 -0.203125q-0.515625 0 -0.953125 0.203125q-0.4375 0.203125 -0.765625 0.578125q-0.3125 0.359375 -0.5 0.890625q-0.1875 0.515625 -0.234375 1.140625l4.890625 0zm12.460419 5.375l-2.140625 0l-2.515625 -3.546875l-2.484375 3.546875l-2.078125 0l3.609375 -4.671875l-3.453125 -4.640625l2.078125 0l2.4375 3.578125l2.40625 -3.578125l2.0 0l-3.5 4.671875l3.640625 4.640625zm9.819794 -4.828125q0 1.25 -0.34375 2.1875q-0.34375 0.921875 -0.953125 1.53125q-0.609375 0.609375 -1.453125 0.921875q-0.828125 0.296875 -1.8125 0.296875q-0.4375 0 -0.890625 -0.046875q-0.4375 -0.046875 -0.890625 -0.15625l0 3.890625l-1.609375 0l0 -13.109375l1.4375 0l0.109375 1.5625q0.6875 -0.96875 1.46875 -1.34375q0.796875 -0.390625 1.71875 -0.390625q0.796875 0 1.390625 0.34375q0.609375 0.328125 1.015625 0.9375q0.40625 0.609375 0.609375 1.46875q0.203125 0.859375 0.203125 1.90625zm-1.640625 0.078125q0 -0.734375 -0.109375 -1.34375q-0.109375 -0.609375 -0.34375 -1.046875q-0.234375 -0.4375 -0.59375 -0.6875q-0.359375 -0.25 -0.859375 -0.25q-0.3125 0 -0.625 0.109375q-0.3125 0.09375 -0.65625 0.328125q-0.328125 0.21875 -0.703125 0.59375q-0.375 0.375 -0.8125 0.9375l0 4.515625q0.453125 0.1875 0.9375 0.296875q0.5 0.09375 0.96875 0.09375q1.3125 0 2.046875 -0.875q0.75 -0.890625 0.75 -2.671875zm4.3979187 -4.484375l1.0 -1.03125l6.234375 5.203125l-6.234375 5.21875l-1.0 -1.03125l5.0625 -4.15625l-5.0625 -4.203125zm25.639587 13.125q-4.28125 -3.953125 -4.28125 -8.75q0 -1.125 0.21875 -2.234375q0.234375 -1.125 0.734375 -2.25q0.515625 -1.125 1.34375 -2.234375q0.828125 -1.125 2.015625 -2.234375l0.9375 0.953125q-3.59375 3.546875 -3.59375 7.875q0 2.15625 0.90625 4.140625q0.90625 1.984375 2.6875 3.75l-0.96875 0.984375zm7.6322937 -17.0l-0.25 4.34375l-1.53125 0l-0.265625 -4.34375l2.046875 0zm3.609375 0l-0.25 4.34375l-1.53125 0l-0.265625 -4.34375l2.046875 0zm11.882294 8.765625l-3.65625 0l0 3.78125l-1.59375 0l0 -3.78125l-3.640625 0l0 -1.421875l3.640625 0l0 -3.75l1.59375 0l0 3.75l3.65625 0l0 1.421875zm5.0229187 -8.765625l-0.25 4.34375l-1.53125 0l-0.265625 -4.34375l2.046875 0zm3.609375 0l-0.25 4.34375l-1.53125 0l-0.265625 -4.34375l2.046875 0zm8.194794 16.90625l-1.515625 0l0 -19.0l1.515625 0l0 19.0zm8.710419 -16.90625l-0.25 4.34375l-1.53125 0l-0.265625 -4.34375l2.046875 0zm3.609375 0l-0.25 4.34375l-1.53125 0l-0.265625 -4.34375l2.046875 0zm10.210403 8.8125l-5.5468597 0l0 -1.515625l5.5468597 0l0 1.515625zm6.6947937 -8.8125l-0.25 4.34375l-1.53125 0l-0.265625 -4.34375l2.046875 0zm3.609375 0l-0.25 4.34375l-1.53125 0l-0.265625 -4.34375l2.046875 0zm5.6010437 -0.703125q4.265625 3.953125 4.265625 8.8125q0 1.0 -0.203125 2.078125q-0.203125 1.078125 -0.703125 2.203125q-0.484375 1.125 -1.3125 2.28125q-0.828125 1.171875 -2.09375 2.328125l-0.9375 -0.953125q1.8125 -1.78125 2.703125 -3.734375q0.890625 -1.953125 0.890625 -4.078125q0 -4.421875 -3.59375 -7.953125l0.984375 -0.984375zm25.639587 12.9375l-1.015625 1.03125l-6.234375 -5.21875l6.234375 -5.203125l1.015625 1.03125l-5.0625 4.15625l5.0625 4.203125zm10.726044 0.75q-0.546875 0.140625 -1.125 0.1875q-0.578125 0.0625 -1.1875 0.0625q-1.75 0 -2.625 -0.78125q-0.859375 -0.796875 -0.859375 -2.4375l0 -4.859375l-2.609375 0l0 -1.359375l2.609375 0l0 -2.5625l1.625 -0.421875l0 2.984375l4.171875 0l0 1.359375l-4.171875 0l0 4.71875q0 1.0 0.53125 1.5q0.53125 0.5 1.5625 0.5q0.453125 0 0.984375 -0.0625q0.53125 -0.078125 1.09375 -0.21875l0 1.390625zm10.632294 -5.03125q0 0.34375 -0.015625 0.578125q-0.015625 0.234375 -0.03125 0.4375l-6.53125 0q0 1.4375 0.796875 2.203125q0.796875 0.765625 2.296875 0.765625q0.40625 0 0.8125 -0.03125q0.40625 -0.046875 0.78125 -0.09375q0.390625 -0.0625 0.734375 -0.125q0.34375 -0.078125 0.640625 -0.15625l0 1.328125q-0.65625 0.1875 -1.484375 0.296875q-0.828125 0.125 -1.71875 0.125q-1.203125 0 -2.0625 -0.328125q-0.859375 -0.328125 -1.421875 -0.9375q-0.546875 -0.625 -0.8125 -1.515625q-0.265625 -0.890625 -0.265625 -2.03125q0 -0.984375 0.28125 -1.859375q0.296875 -0.875 0.828125 -1.53125q0.546875 -0.671875 1.328125 -1.0625q0.796875 -0.390625 1.796875 -0.390625q0.984375 0 1.734375 0.3125q0.75 0.296875 1.265625 0.859375q0.515625 0.5625 0.78125 1.375q0.265625 0.796875 0.265625 1.78125zm-1.6875 -0.21875q0.03125 -0.625 -0.125 -1.140625q-0.140625 -0.515625 -0.453125 -0.890625q-0.3125 -0.375 -0.78125 -0.578125q-0.453125 -0.203125 -1.078125 -0.203125q-0.515625 0 -0.953125 0.203125q-0.4375 0.203125 -0.765625 0.578125q-0.3125 0.359375 -0.5 0.890625q-0.1875 0.515625 -0.234375 1.140625l4.890625 0zm4.4447937 -3.9375l1.484375 0l0.046875 1.71875q0.828125 -1.0 1.625 -1.4375q0.796875 -0.453125 1.625 -0.453125q1.4375 0 2.1875 0.9375q0.75 0.9375 0.6875 2.78125l-1.625 0q0.015625 -1.21875 -0.375 -1.765625q-0.375 -0.5625 -1.109375 -0.5625q-0.328125 0 -0.65625 0.125q-0.328125 0.109375 -0.6875 0.375q-0.34375 0.25 -0.734375 0.65625q-0.390625 0.390625 -0.828125 0.953125l0 5.984375l-1.640625 0l0 -9.3125zm16.522919 9.3125l0 -6.6875q0 -0.4375 -0.03125 -0.71875q-0.03125 -0.28125 -0.109375 -0.4375q-0.0625 -0.15625 -0.171875 -0.21875q-0.109375 -0.078125 -0.265625 -0.078125q-0.1875 0 -0.34375 0.125q-0.15625 0.109375 -0.34375 0.359375q-0.171875 0.25 -0.390625 0.65625q-0.21875 0.40625 -0.515625 1.015625l0 5.984375l-1.46875 0l0 -6.515625q0 -0.5 -0.03125 -0.8125q-0.03125 -0.328125 -0.109375 -0.5q-0.0625 -0.171875 -0.1875 -0.234375q-0.109375 -0.078125 -0.265625 -0.078125q-0.15625 0 -0.3125 0.09375q-0.140625 0.09375 -0.328125 0.34375q-0.171875 0.234375 -0.40625 0.65625q-0.21875 0.40625 -0.53125 1.0625l0 5.984375l-1.484375 0l0 -9.3125l1.234375 0l0.078125 1.765625q0.25 -0.53125 0.46875 -0.890625q0.234375 -0.375 0.46875 -0.59375q0.25 -0.234375 0.515625 -0.34375q0.28125 -0.109375 0.609375 -0.109375q0.75 0 1.140625 0.5q0.390625 0.484375 0.390625 1.515625q0.21875 -0.484375 0.4375 -0.859375q0.21875 -0.375 0.453125 -0.625q0.25 -0.265625 0.546875 -0.390625q0.296875 -0.140625 0.6875 -0.140625q1.75 0 1.75 2.703125l0 6.78125l-1.484375 0zm4.0697937 -9.234375l1.0 -1.03125l6.234375 5.203125l-6.234375 5.21875l-1.0 -1.03125l5.0625 -4.15625l-5.0625 -4.203125z" fill-rule="nonzero"></path><path fill="#fff2cc" d="m377.1404 293.50656l27.559052 -23.62204l27.559082 23.62204l-27.559082 23.62204z" fill-rule="evenodd"></path><path stroke="#000000" stroke-width="1.0" stroke-linejoin="round" stroke-linecap="butt" d="m377.1404 293.50656l27.559052 -23.62204l27.559082 23.62204l-27.559082 23.62204z" fill-rule="evenodd"></path><path fill="#000000" d="m400.5137 289.3172l0.421875 -1.3125q1.484375 0.515625 2.140625 0.90625q-0.171875 -1.6875 -0.171875 -2.3125l1.34375 0q-0.03125 0.90625 -0.21875 2.296875q0.953125 -0.484375 2.1875 -0.890625l0.421875 1.3125q-1.171875 0.390625 -2.296875 0.53125q0.5625 0.484375 1.59375 1.75l-1.109375 0.78125q-0.546875 -0.734375 -1.28125 -1.984375q-0.6875 1.296875 -1.203125 1.984375l-1.09375 -0.78125q1.078125 -1.328125 1.53125 -1.75q-1.1875 -0.234375 -2.265625 -0.53125z" fill-rule="nonzero"></path><path fill="#cfe2f3" d="m262.7979 182.31233l284.22046 0l0 62.992126l-284.22046 0z" fill-rule="evenodd"></path><path stroke="#000000" stroke-width="1.0" stroke-linejoin="round" stroke-linecap="butt" d="m262.7979 182.31233l284.22046 0l0 62.992126l-284.22046 0z" fill-rule="evenodd"></path><path fill="#000000" d="m280.31354 219.8534l-1.015625 1.03125l-6.234375 -5.21875l6.234375 -5.203125l1.015625 1.03125l-5.0625 4.15625l5.0625 4.203125zm10.726044 0.75q-0.546875 0.140625 -1.125 0.1875q-0.578125 0.0625 -1.1875 0.0625q-1.75 0 -2.625 -0.78125q-0.859375 -0.796875 -0.859375 -2.4375l0 -4.859375l-2.609375 0l0 -1.359375l2.609375 0l0 -2.5625l1.625 -0.421875l0 2.984375l4.171875 0l0 1.359375l-4.171875 0l0 4.71875q0 1.0 0.53125 1.5q0.53125 0.5 1.5625 0.5q0.453125 0 0.984375 -0.0625q0.53125 -0.078125 1.09375 -0.21875l0 1.390625zm10.632294 -5.03125q0 0.34375 -0.015625 0.578125q-0.015625 0.234375 -0.03125 0.4375l-6.53125 0q0 1.4375 0.796875 2.203125q0.796875 0.765625 2.296875 0.765625q0.40625 0 0.8125 -0.03125q0.40625 -0.046875 0.78125 -0.09375q0.390625 -0.0625 0.734375 -0.125q0.34375 -0.078125 0.640625 -0.15625l0 1.328125q-0.65625 0.1875 -1.484375 0.296875q-0.828125 0.125 -1.71875 0.125q-1.203125 0 -2.0625 -0.328125q-0.859375 -0.328125 -1.421875 -0.9375q-0.546875 -0.625 -0.8125 -1.515625q-0.265625 -0.890625 -0.265625 -2.03125q0 -0.984375 0.28125 -1.859375q0.296875 -0.875 0.828125 -1.53125q0.546875 -0.671875 1.328125 -1.0625q0.796875 -0.390625 1.796875 -0.390625q0.984375 0 1.734375 0.3125q0.75 0.296875 1.265625 0.859375q0.515625 0.5625 0.78125 1.375q0.265625 0.796875 0.265625 1.78125zm-1.6875 -0.21875q0.03125 -0.625 -0.125 -1.140625q-0.140625 -0.515625 -0.453125 -0.890625q-0.3125 -0.375 -0.78125 -0.578125q-0.453125 -0.203125 -1.078125 -0.203125q-0.515625 0 -0.953125 0.203125q-0.4375 0.203125 -0.765625 0.578125q-0.3125 0.359375 -0.5 0.890625q-0.1875 0.515625 -0.234375 1.140625l4.890625 0zm4.4447937 -3.9375l1.484375 0l0.046875 1.71875q0.828125 -1.0 1.625 -1.4375q0.796875 -0.453125 1.625 -0.453125q1.4375 0 2.1875 0.9375q0.75 0.9375 0.6875 2.78125l-1.625 0q0.015625 -1.21875 -0.375 -1.765625q-0.375 -0.5625 -1.109375 -0.5625q-0.328125 0 -0.65625 0.125q-0.328125 0.109375 -0.6875 0.375q-0.34375 0.25 -0.734375 0.65625q-0.390625 0.390625 -0.828125 0.953125l0 5.984375l-1.640625 0l0 -9.3125zm16.522919 9.3125l0 -6.6875q0 -0.4375 -0.03125 -0.71875q-0.03125 -0.28125 -0.109375 -0.4375q-0.0625 -0.15625 -0.171875 -0.21875q-0.109375 -0.078125 -0.265625 -0.078125q-0.1875 0 -0.34375 0.125q-0.15625 0.109375 -0.34375 0.359375q-0.171875 0.25 -0.390625 0.65625q-0.21875 0.40625 -0.515625 1.015625l0 5.984375l-1.46875 0l0 -6.515625q0 -0.5 -0.03125 -0.8125q-0.03125 -0.328125 -0.109375 -0.5q-0.0625 -0.171875 -0.1875 -0.234375q-0.109375 -0.078125 -0.265625 -0.078125q-0.15625 0 -0.3125 0.09375q-0.140625 0.09375 -0.328125 0.34375q-0.171875 0.234375 -0.40625 0.65625q-0.21875 0.40625 -0.53125 1.0625l0 5.984375l-1.484375 0l0 -9.3125l1.234375 0l0.078125 1.765625q0.25 -0.53125 0.46875 -0.890625q0.234375 -0.375 0.46875 -0.59375q0.25 -0.234375 0.515625 -0.34375q0.28125 -0.109375 0.609375 -0.109375q0.75 0 1.140625 0.5q0.390625 0.484375 0.390625 1.515625q0.21875 -0.484375 0.4375 -0.859375q0.21875 -0.375 0.453125 -0.625q0.25 -0.265625 0.546875 -0.390625q0.296875 -0.140625 0.6875 -0.140625q1.75 0 1.75 2.703125l0 6.78125l-1.484375 0zm4.0697937 -9.234375l1.0 -1.03125l6.234375 5.203125l-6.234375 5.21875l-1.0 -1.03125l5.0625 -4.15625l-5.0625 -4.203125zm25.639587 13.125q-4.28125 -3.953125 -4.28125 -8.75q0 -1.125 0.21875 -2.234375q0.234375 -1.125 0.734375 -2.25q0.515625 -1.125 1.34375 -2.234375q0.828125 -1.125 2.015625 -2.234375l0.9375 0.953125q-3.59375 3.546875 -3.59375 7.875q0 2.15625 0.90625 4.140625q0.90625 1.984375 2.6875 3.75l-0.96875 0.984375zm7.6322937 -17.0l-0.25 4.34375l-1.53125 0l-0.265625 -4.34375l2.046875 0zm3.609375 0l-0.25 4.34375l-1.53125 0l-0.265625 -4.34375l2.046875 0zm11.132294 5.3125l-0.640625 1.109375l-2.609375 -1.734375l0.21875 3.1875l-1.328125 0l0.203125 -3.1875l-2.65625 1.734375l-0.59375 -1.09375l2.859375 -1.390625l-2.859375 -1.4375l0.640625 -1.078125l2.625 1.75l-0.21875 -3.171875l1.328125 0l-0.234375 3.171875l2.625 -1.765625l0.65625 1.140625l-2.859375 1.40625l2.84375 1.359375zm5.7729187 -5.3125l-0.25 4.34375l-1.53125 0l-0.265625 -4.34375l2.046875 0zm3.609375 0l-0.25 4.34375l-1.53125 0l-0.265625 -4.34375l2.046875 0zm8.194794 16.90625l-1.515625 0l0 -19.0l1.515625 0l0 19.0zm8.710419 -16.90625l-0.25 4.34375l-1.53125 0l-0.265625 -4.34375l2.046875 0zm3.609375 0l-0.25 4.34375l-1.53125 0l-0.265625 -4.34375l2.046875 0zm11.179169 0l-6.359375 15.109375l-1.546875 0l6.375 -15.109375l1.53125 0zm5.7260437 0l-0.25 4.34375l-1.53125 0l-0.265625 -4.34375l2.046875 0zm3.609375 0l-0.25 4.34375l-1.53125 0l-0.265625 -4.34375l2.046875 0zm5.6010437 -0.703125q4.265625 3.953125 4.265625 8.8125q0 1.0 -0.203125 2.078125q-0.203125 1.078125 -0.703125 2.203125q-0.484375 1.125 -1.3125 2.28125q-0.828125 1.171875 -2.09375 2.328125l-0.9375 -0.953125q1.8125 -1.78125 2.703125 -3.734375q0.890625 -1.953125 0.890625 -4.078125q0 -4.421875 -3.59375 -7.953125l0.984375 -0.984375zm25.639587 12.9375l-1.015625 1.03125l-6.234375 -5.21875l6.234375 -5.203125l1.015625 1.03125l-5.0625 4.15625l5.0625 4.203125zm11.491669 -10.734375q-1.265625 -0.265625 -2.1875 -0.265625q-2.1875 0 -2.1875 2.28125l0 1.640625l4.09375 0l0 1.34375l-4.09375 0l0 6.609375l-1.640625 0l0 -6.609375l-2.984375 0l0 -1.34375l2.984375 0l0 -1.546875q0 -3.71875 3.875 -3.71875q0.96875 0 2.140625 0.21875l0 1.390625zm-9.75 2.296875l0 0zm17.726044 9.3125l-0.03125 -1.25q-0.765625 0.75 -1.546875 1.09375q-0.78125 0.328125 -1.65625 0.328125q-0.796875 0 -1.359375 -0.203125q-0.5625 -0.203125 -0.9375 -0.5625q-0.359375 -0.359375 -0.53125 -0.84375q-0.171875 -0.484375 -0.171875 -1.046875q0 -1.40625 1.046875 -2.1875q1.046875 -0.796875 3.078125 -0.796875l1.9375 0l0 -0.828125q0 -0.8125 -0.53125 -1.3125q-0.53125 -0.5 -1.609375 -0.5q-0.796875 0 -1.5625 0.1875q-0.765625 0.171875 -1.578125 0.484375l0 -1.453125q0.296875 -0.109375 0.671875 -0.21875q0.390625 -0.109375 0.796875 -0.1875q0.421875 -0.078125 0.875 -0.125q0.453125 -0.0625 0.921875 -0.0625q0.84375 0 1.515625 0.1875q0.6875 0.1875 1.15625 0.578125q0.46875 0.375 0.71875 0.953125q0.25 0.5625 0.25 1.34375l0 6.421875l-1.453125 0zm-0.171875 -4.234375l-2.0625 0q-0.59375 0 -1.03125 0.125q-0.4375 0.109375 -0.71875 0.34375q-0.28125 0.21875 -0.421875 0.53125q-0.125 0.296875 -0.125 0.6875q0 0.28125 0.078125 0.53125q0.09375 0.234375 0.28125 0.421875q0.1875 0.1875 0.484375 0.3125q0.296875 0.109375 0.71875 0.109375q0.5625 0 1.28125 -0.34375q0.71875 -0.34375 1.515625 -1.078125l0 -1.640625zm11.679169 3.890625q-0.625 0.234375 -1.296875 0.34375q-0.65625 0.125 -1.359375 0.125q-2.21875 0 -3.40625 -1.1875q-1.1875 -1.203125 -1.1875 -3.5q0 -1.109375 0.34375 -2.0q0.34375 -0.90625 0.953125 -1.546875q0.625 -0.640625 1.484375 -0.984375q0.875 -0.34375 1.90625 -0.34375q0.734375 0 1.359375 0.109375q0.625 0.09375 1.203125 0.3125l0 1.546875q-0.59375 -0.3125 -1.234375 -0.453125q-0.625 -0.15625 -1.28125 -0.15625q-0.625 0 -1.1875 0.25q-0.546875 0.234375 -0.96875 0.6875q-0.40625 0.4375 -0.65625 1.078125q-0.234375 0.640625 -0.234375 1.4375q0 1.6875 0.8125 2.53125q0.828125 0.84375 2.28125 0.84375q0.65625 0 1.265625 -0.140625q0.625 -0.15625 1.203125 -0.453125l0 1.5zm10.522919 0.21875q-0.546875 0.140625 -1.125 0.1875q-0.578125 0.0625 -1.1875 0.0625q-1.75 0 -2.625 -0.78125q-0.859375 -0.796875 -0.859375 -2.4375l0 -4.859375l-2.609375 0l0 -1.359375l2.609375 0l0 -2.5625l1.625 -0.421875l0 2.984375l4.171875 0l0 1.359375l-4.171875 0l0 4.71875q0 1.0 0.53125 1.5q0.53125 0.5 1.5625 0.5q0.453125 0 0.984375 -0.0625q0.53125 -0.078125 1.09375 -0.21875l0 1.390625zm10.866669 -4.609375q0 1.09375 -0.3125 2.0q-0.296875 0.890625 -0.875 1.546875q-0.578125 0.640625 -1.40625 1.0q-0.828125 0.359375 -1.875 0.359375q-1.0 0 -1.796875 -0.3125q-0.78125 -0.3125 -1.34375 -0.90625q-0.546875 -0.609375 -0.84375 -1.5q-0.28125 -0.890625 -0.28125 -2.0625q0 -1.078125 0.296875 -1.96875q0.3125 -0.90625 0.875 -1.546875q0.578125 -0.640625 1.40625 -1.0q0.828125 -0.359375 1.875 -0.359375q1.0 0 1.796875 0.3125q0.796875 0.3125 1.34375 0.921875q0.5625 0.59375 0.84375 1.484375q0.296875 0.890625 0.296875 2.03125zm-1.65625 0.078125q0 -0.859375 -0.1875 -1.5q-0.1875 -0.65625 -0.546875 -1.078125q-0.34375 -0.4375 -0.859375 -0.65625q-0.5 -0.21875 -1.125 -0.21875q-0.71875 0 -1.234375 0.28125q-0.515625 0.28125 -0.84375 0.765625q-0.328125 0.46875 -0.484375 1.09375q-0.15625 0.625 -0.15625 1.3125q0 0.859375 0.1875 1.515625q0.203125 0.640625 0.546875 1.078125q0.359375 0.421875 0.859375 0.640625q0.5 0.21875 1.125 0.21875q0.734375 0 1.25 -0.28125q0.515625 -0.28125 0.84375 -0.75q0.328125 -0.46875 0.46875 -1.09375q0.15625 -0.640625 0.15625 -1.328125zm4.1791687 -4.65625l1.484375 0l0.046875 1.71875q0.828125 -1.0 1.6249695 -1.4375q0.796875 -0.453125 1.625 -0.453125q1.4375 0 2.1875 0.9375q0.75 0.9375 0.6875 2.78125l-1.625 0q0.015625 -1.21875 -0.375 -1.765625q-0.375 -0.5625 -1.109375 -0.5625q-0.328125 0 -0.65625 0.125q-0.328125 0.109375 -0.6875 0.375q-0.34375 0.25 -0.734375 0.65625q-0.39059448 0.390625 -0.8280945 0.953125l0 5.984375l-1.640625 0l0 -9.3125zm10.335419 0.078125l1.0 -1.03125l6.234375 5.203125l-6.234375 5.21875l-1.0 -1.03125l5.0625 -4.15625l-5.0625 -4.203125z" fill-rule="nonzero"></path><path fill="#cfe2f3" d="m59.171917 194.83202l77.5748 0l0 37.95276l-77.5748 0z" fill-rule="evenodd"></path><path stroke="#000000" stroke-width="1.0" stroke-linejoin="round" stroke-linecap="butt" d="m59.171917 194.83202l77.5748 0l0 37.95276l-77.5748 0z" fill-rule="evenodd"></path><path fill="#000000" d="m76.68754 219.8534l-1.015625 1.03125l-6.234375 -5.21875l6.234375 -5.203125l1.015625 1.03125l-5.0625 4.15625l5.0625 4.203125zm6.3979187 -7.109375l-2.75 0l0 -1.328125l4.390625 0l0 7.96875l2.765625 0l0 1.34375l-7.46875 0l0 -1.34375l3.0625 0l0 -6.640625zm0.5625 -5.234375q0.28125 0 0.5 0.09375q0.234375 0.09375 0.40625 0.28125q0.171875 0.171875 0.265625 0.40625q0.109375 0.21875 0.109375 0.484375q0 0.265625 -0.109375 0.5q-0.09375 0.234375 -0.265625 0.40625q-0.171875 0.171875 -0.40625 0.28125q-0.21875 0.09375 -0.5 0.09375q-0.265625 0 -0.5 -0.09375q-0.234375 -0.109375 -0.40625 -0.28125q-0.171875 -0.171875 -0.265625 -0.40625q-0.09375 -0.234375 -0.09375 -0.5q0 -0.265625 0.09375 -0.484375q0.09375 -0.234375 0.265625 -0.40625q0.171875 -0.1875 0.40625 -0.28125q0.234375 -0.09375 0.5 -0.09375zm6.5229187 3.90625l1.4375 0l0.0625 1.5q0.40625 -0.484375 0.78125 -0.796875q0.390625 -0.328125 0.75 -0.515625q0.375 -0.203125 0.75 -0.28125q0.390625 -0.078125 0.796875 -0.078125q1.4375 0 2.171875 0.859375q0.734375 0.84375 0.734375 2.546875l0 6.078125l-1.609375 0l0 -5.953125q0 -1.09375 -0.40625 -1.609375q-0.40625 -0.53125 -1.21875 -0.53125q-0.296875 0 -0.578125 0.09375q-0.28125 0.09375 -0.59375 0.3125q-0.296875 0.203125 -0.65625 0.578125q-0.359375 0.375 -0.8125 0.9375l0 6.171875l-1.609375 0l0 -9.3125zm17.757294 9.1875q-0.546875 0.140625 -1.125 0.1875q-0.578125 0.0625 -1.1875 0.0625q-1.75 0 -2.625 -0.78125q-0.859375 -0.796875 -0.859375 -2.4375l0 -4.859375l-2.609375 0l0 -1.359375l2.609375 0l0 -2.5625l1.625 -0.421875l0 2.984375l4.171875 0l0 1.359375l-4.171875 0l0 4.71875q0 1.0 0.53125 1.5q0.53125 0.5 1.5625 0.5q0.453125 0 0.984375 -0.0625q0.53125 -0.078125 1.09375 -0.21875l0 1.390625zm3.2104187 -9.109375l1.0 -1.03125l6.234375 5.203125l-6.234375 5.21875l-1.0 -1.03125l5.0625 -4.15625l-5.0625 -4.203125z" fill-rule="nonzero"></path><path fill="#fff2cc" d="m70.40026 290.20996l27.55906 -23.62204l27.559052 23.62204l-27.559052 23.62207z" fill-rule="evenodd"></path><path stroke="#000000" stroke-width="1.0" stroke-linejoin="round" stroke-linecap="butt" d="m70.40026 290.20996l27.55906 -23.62204l27.559052 23.62204l-27.559052 23.62207z" fill-rule="evenodd"></path><path fill="#000000" d="m102.74229 295.5206l0 1.609375l-8.984375 0q-0.015625 -0.609375 0.1875 -1.15625q0.34375 -0.921875 1.09375 -1.8125q0.765625 -0.890625 2.1875 -2.0625q2.21875 -1.8125 3.0 -2.875q0.78125 -1.0625 0.78125 -2.015625q0 -0.984375 -0.71875 -1.671875q-0.703125 -0.6875 -1.84375 -0.6875q-1.203125 0 -1.9375 0.734375q-0.71875 0.71875 -0.71875 2.0l-1.71875 -0.171875q0.171875 -1.921875 1.328125 -2.921875q1.15625 -1.015625 3.09375 -1.015625q1.953125 0 3.09375 1.09375q1.140625 1.078125 1.140625 2.6875q0 0.8125 -0.34375 1.609375q-0.328125 0.78125 -1.109375 1.65625q-0.765625 0.859375 -2.5625 2.390625q-1.5 1.265625 -1.9375 1.71875q-0.421875 0.4375 -0.703125 0.890625l6.671875 0z" fill-rule="nonzero"></path><path fill="#cfe2f3" d="m254.00787 271.23358l77.5748 0l0 37.95276l-77.5748 0z" fill-rule="evenodd"></path><path stroke="#000000" stroke-width="1.0" stroke-linejoin="round" stroke-linecap="butt" d="m254.00787 271.23358l77.5748 0l0 37.95276l-77.5748 0z" fill-rule="evenodd"></path><path fill="#000000" d="m271.5235 296.25497l-1.015625 1.03125l-6.234375 -5.21875l6.234375 -5.203125l1.015625 1.03125l-5.0625 4.15625l5.0625 4.203125zm6.3979187 -7.109375l-2.75 0l0 -1.328125l4.390625 0l0 7.96875l2.765625 0l0 1.34375l-7.46875 0l0 -1.34375l3.0625 0l0 -6.640625zm0.5625 -5.234375q0.28125 0 0.5 0.09375q0.234375 0.09375 0.40625 0.28125q0.171875 0.171875 0.265625 0.40625q0.109375 0.21875 0.109375 0.484375q0 0.265625 -0.109375 0.5q-0.09375 0.234375 -0.265625 0.40625q-0.171875 0.171875 -0.40625 0.28125q-0.21875 0.09375 -0.5 0.09375q-0.265625 0 -0.5 -0.09375q-0.234375 -0.109375 -0.40625 -0.28125q-0.171875 -0.171875 -0.265625 -0.40625q-0.09375 -0.234375 -0.09375 -0.5q0 -0.265625 0.09375 -0.484375q0.09375 -0.234375 0.265625 -0.40625q0.171875 -0.1875 0.40625 -0.28125q0.234375 -0.09375 0.5 -0.09375zm6.5229187 3.90625l1.4375 0l0.0625 1.5q0.40625 -0.484375 0.78125 -0.796875q0.390625 -0.328125 0.75 -0.515625q0.375 -0.203125 0.75 -0.28125q0.390625 -0.078125 0.796875 -0.078125q1.4375 0 2.171875 0.859375q0.734375 0.84375 0.734375 2.546875l0 6.078125l-1.609375 0l0 -5.953125q0 -1.09375 -0.40625 -1.609375q-0.40625 -0.53125 -1.21875 -0.53125q-0.296875 0 -0.578125 0.09375q-0.28125 0.09375 -0.59375 0.3125q-0.296875 0.203125 -0.65625 0.578125q-0.359375 0.375 -0.8125 0.9375l0 6.171875l-1.609375 0l0 -9.3125zm17.757294 9.1875q-0.546875 0.140625 -1.125 0.1875q-0.578125 0.0625 -1.1875 0.0625q-1.75 0 -2.625 -0.78125q-0.859375 -0.796875 -0.859375 -2.4375l0 -4.859375l-2.609375 0l0 -1.359375l2.609375 0l0 -2.5625l1.625 -0.421875l0 2.984375l4.171875 0l0 1.359375l-4.171875 0l0 4.71875q0 1.0 0.53125 1.5q0.53125 0.5 1.5625 0.5q0.453125 0 0.984375 -0.0625q0.53125 -0.078125 1.09375 -0.21875l0 1.390625zm3.2104187 -9.109375l1.0 -1.03125l6.234375 5.203125l-6.234375 5.21875l-1.0 -1.03125l5.0625 -4.15625l-5.0625 -4.203125z" fill-rule="nonzero"></path><path fill="#cfe2f3" d="m459.06168 274.53018l77.5748 0l0 37.95276l-77.5748 0z" fill-rule="evenodd"></path><path stroke="#000000" stroke-width="1.0" stroke-linejoin="round" stroke-linecap="butt" d="m459.06168 274.53018l77.5748 0l0 37.95276l-77.5748 0z" fill-rule="evenodd"></path><path fill="#000000" d="m476.5773 299.55154l-1.015625 1.03125l-6.234375 -5.21875l6.234375 -5.203125l1.015625 1.03125l-5.0625 4.15625l5.0625 4.203125zm6.3979187 -7.109375l-2.75 0l0 -1.328125l4.390625 0l0 7.96875l2.765625 0l0 1.34375l-7.46875 0l0 -1.34375l3.0625 0l0 -6.640625zm0.5625 -5.234375q0.28125 0 0.5 0.09375q0.234375 0.09375 0.40625 0.28125q0.171875 0.171875 0.265625 0.40625q0.109375 0.21875 0.109375 0.484375q0 0.265625 -0.109375 0.5q-0.09375 0.234375 -0.265625 0.40625q-0.171875 0.171875 -0.40625 0.28125q-0.21875 0.09375 -0.5 0.09375q-0.265625 0 -0.5 -0.09375q-0.234375 -0.109375 -0.40625 -0.28125q-0.171875 -0.171875 -0.265625 -0.40625q-0.09375 -0.234375 -0.09375 -0.5q0 -0.265625 0.09375 -0.484375q0.09375 -0.234375 0.265625 -0.40625q0.171875 -0.1875 0.40625 -0.28125q0.234375 -0.09375 0.5 -0.09375zm6.5229187 3.90625l1.4375 0l0.0625 1.5q0.40625 -0.484375 0.78125 -0.796875q0.390625 -0.328125 0.75 -0.515625q0.375 -0.203125 0.75 -0.28125q0.390625 -0.078125 0.796875 -0.078125q1.4375 0 2.171875 0.859375q0.734375 0.84375 0.734375 2.546875l0 6.078125l-1.609375 0l0 -5.953125q0 -1.09375 -0.40625 -1.609375q-0.40625 -0.53125 -1.21875 -0.53125q-0.296875 0 -0.578125 0.09375q-0.28125 0.09375 -0.59375 0.3125q-0.296875 0.203125 -0.65625 0.578125q-0.359375 0.375 -0.8125 0.9375l0 6.171875l-1.609375 0l0 -9.3125zm17.757294 9.1875q-0.546875 0.140625 -1.125 0.1875q-0.578125 0.0625 -1.1875 0.0625q-1.75 0 -2.625 -0.78125q-0.859375 -0.796875 -0.859375 -2.4375l0 -4.859375l-2.609375 0l0 -1.359375l2.609375 0l0 -2.5625l1.625 -0.421875l0 2.984375l4.171875 0l0 1.359375l-4.171875 0l0 4.71875q0 1.0 0.53125 1.5q0.53125 0.5 1.5625 0.5q0.453125 0 0.984375 -0.0625q0.53125 -0.078125 1.09375 -0.21875l0 1.390625zm3.2104187 -9.109375l1.0000305 -1.03125l6.234375 5.203125l-6.234375 5.21875l-1.0000305 -1.03125l5.0625305 -4.15625l-5.0625305 -4.203125z" fill-rule="nonzero"></path><path fill="#fff2cc" d="m218.39764 146.16667l27.559052 -23.622055l27.559052 23.622055l-27.559052 23.62204z" fill-rule="evenodd"></path><path stroke="#000000" stroke-width="1.0" stroke-linejoin="round" stroke-linecap="butt" d="m218.39764 146.16667l27.559052 -23.622055l27.559052 23.622055l-27.559052 23.62204z" fill-rule="evenodd"></path><path fill="#000000" d="m245.9428 150.88354l0 -3.71875l-3.703125 0l0 -1.5625l3.703125 0l0 -3.703125l1.578125 0l0 3.703125l3.6875 0l0 1.5625l-3.6875 0l0 3.71875l-1.578125 0z" fill-rule="nonzero"></path><path fill="#fff2cc" d="m265.9134 358.73752l27.559052 -23.62204l27.559052 23.62204l-27.559052 23.62207z" fill-rule="evenodd"></path><path stroke="#000000" stroke-width="1.0" stroke-linejoin="round" stroke-linecap="butt" d="m265.9134 358.73752l27.559052 -23.62204l27.559052 23.62204l-27.559052 23.62207z" fill-rule="evenodd"></path><path fill="#000000" d="m289.48978 362.06378l1.671875 -0.21875q0.28125 1.421875 0.96875 2.046875q0.703125 0.625 1.6875 0.625q1.1875 0 2.0 -0.8125q0.8125 -0.828125 0.8125 -2.03125q0 -1.140625 -0.765625 -1.890625q-0.75 -0.75 -1.90625 -0.75q-0.46875 0 -1.171875 0.1875l0.1875 -1.46875q0.15625 0.015625 0.265625 0.015625q1.0625 0 1.90625 -0.546875q0.859375 -0.5625 0.859375 -1.71875q0 -0.921875 -0.625 -1.515625q-0.609375 -0.609375 -1.59375 -0.609375q-0.96875 0 -1.625 0.609375q-0.640625 0.609375 -0.828125 1.84375l-1.671875 -0.296875q0.296875 -1.6875 1.375 -2.609375q1.09375 -0.921875 2.71875 -0.921875q1.109375 0 2.046875 0.484375q0.9375 0.46875 1.421875 1.296875q0.5 0.828125 0.5 1.75q0 0.890625 -0.46875 1.609375q-0.46875 0.71875 -1.40625 1.15625q1.21875 0.265625 1.875 1.15625q0.671875 0.875 0.671875 2.1875q0 1.78125 -1.296875 3.015625q-1.296875 1.234375 -3.28125 1.234375q-1.796875 0 -2.984375 -1.0625q-1.171875 -1.0625 -1.34375 -2.765625z" fill-rule="nonzero"></path><path fill="#fff2cc" d="m470.29135 358.73883l27.559052 -23.62204l27.559021 23.62204l-27.559021 23.62207z" fill-rule="evenodd"></path><path stroke="#000000" stroke-width="1.0" stroke-linejoin="round" stroke-linecap="butt" d="m470.29135 358.73883l27.559052 -23.62204l27.559021 23.62204l-27.559021 23.62207z" fill-rule="evenodd"></path><path fill="#000000" d="m499.2115 365.65884l0 -3.25l-5.90625 0l0 -1.53125l6.21875 -8.8125l1.359375 0l0 8.8125l1.84375 0l0 1.53125l-1.84375 0l0 3.25l-1.671875 0zm0 -4.78125l0 -6.140625l-4.25 6.140625l4.25 0z" fill-rule="nonzero"></path><path fill="#000000" fill-opacity="0.0" d="m145.42389 93.63517l-47.46457 101.196846" fill-rule="evenodd"></path><path stroke="#000000" stroke-width="1.0" stroke-linejoin="round" stroke-linecap="butt" d="m145.42389 93.63517l-47.46457 101.196846" fill-rule="evenodd"></path><path fill="#000000" fill-opacity="0.0" d="m97.95932 232.78477l0 33.795273" fill-rule="evenodd"></path><path stroke="#000000" stroke-width="1.0" stroke-linejoin="round" stroke-linecap="butt" d="m97.95932 232.78477l0 33.795273" fill-rule="evenodd"></path><path fill="#000000" fill-opacity="0.0" d="m245.9567 122.54462l0 0" fill-rule="evenodd"></path><path stroke="#000000" stroke-width="1.0" stroke-linejoin="round" stroke-linecap="butt" d="m245.9567 122.54462l0 0" fill-rule="evenodd"></path><path fill="#000000" fill-opacity="0.0" d="m497.8491 274.53018l0 0" fill-rule="evenodd"></path><path stroke="#000000" stroke-width="1.0" stroke-linejoin="round" stroke-linecap="butt" d="m497.8491 274.53018l0 0" fill-rule="evenodd"></path><path fill="#000000" fill-opacity="0.0" d="m497.8491 274.53018l0 0" fill-rule="evenodd"></path><path stroke="#000000" stroke-width="1.0" stroke-linejoin="round" stroke-linecap="butt" d="m497.8491 274.53018l0 0" fill-rule="evenodd"></path><path fill="#000000" fill-opacity="0.0" d="m497.8491 274.53018l0 0" fill-rule="evenodd"></path><path stroke="#000000" stroke-width="1.0" stroke-linejoin="round" stroke-linecap="butt" d="m497.8491 274.53018l0 0" fill-rule="evenodd"></path><path fill="#000000" fill-opacity="0.0" d="m497.8491 274.53018l-20.031494 -28.629913" fill-rule="evenodd"></path><path stroke="#000000" stroke-width="1.0" stroke-linejoin="round" stroke-linecap="butt" d="m497.8491 274.53018l-20.031494 -28.629913" fill-rule="evenodd"></path><path fill="#000000" fill-opacity="0.0" d="m292.7953 271.23358l22.236206 -26.204712" fill-rule="evenodd"></path><path stroke="#000000" stroke-width="1.0" stroke-linejoin="round" stroke-linecap="butt" d="m292.7953 271.23358l22.236206 -26.204712" fill-rule="evenodd"></path><path fill="#000000" fill-opacity="0.0" d="m497.8491 312.48294l0 22.64566" fill-rule="evenodd"></path><path stroke="#000000" stroke-width="1.0" stroke-linejoin="round" stroke-linecap="butt" d="m497.8491 312.48294l0 22.64566" fill-rule="evenodd"></path><path fill="#000000" fill-opacity="0.0" d="m292.7953 309.18634l0.6929016 25.921265" fill-rule="evenodd"></path><path stroke="#000000" stroke-width="1.0" stroke-linejoin="round" stroke-linecap="butt" d="m292.7953 309.18634l0.6929016 25.921265" fill-rule="evenodd"></path><path fill="#000000" fill-opacity="0.0" d="m245.958 92.49869l0 30.047241" fill-rule="evenodd"></path><path stroke="#000000" stroke-width="1.0" stroke-linejoin="round" stroke-linecap="butt" d="m245.958 92.49869l0 30.047241" fill-rule="evenodd"></path><path fill="#000000" fill-opacity="0.0" d="m404.90814 245.30446l-0.2204895 24.56694" fill-rule="evenodd"></path><path stroke="#000000" stroke-width="1.0" stroke-linejoin="round" stroke-linecap="butt" d="m404.90814 245.30446l-0.2204895 24.56694" fill-rule="evenodd"></path><path fill="#000000" fill-opacity="0.0" d="m322.4042 93.92126l79.24408 89.10236" fill-rule="evenodd"></path><path stroke="#000000" stroke-width="1.0" stroke-linejoin="round" stroke-linecap="butt" d="m322.4042 93.92126l79.24408 89.10236" fill-rule="evenodd"></path></g></svg>

